<?xml version="1.0" encoding="UTF-8" standalone="no"?>
<!-- Created with Inkscape (http://www.inkscape.org/) -->

<svg
   version="1.1"
   id="svg1"
   width="62.361328"
   height="16.212891"
   viewBox="0 0 62.361329 16.212891"
   sodipodi:docname="barcode.svg"
   inkscape:version="1.4.3 (0d15f75042, 2025-12-25)"
   xmlns:inkscape="http://www.inkscape.org/namespaces/inkscape"
   xmlns:sodipodi="http://sodipodi.sourceforge.net/DTD/sodipodi-0.dtd"
   xmlns="http://www.w3.org/2000/svg"
   xmlns:svg="http://www.w3.org/2000/svg">
  <sodipodi:namedview
     id="namedview1"
     pagecolor="#505050"
     bordercolor="#eeeeee"
     borderopacity="1"
     inkscape:showpageshadow="0"
     inkscape:pageopacity="0"
     inkscape:pagecheckerboard="0"
     inkscape:deskcolor="#505050"
     inkscape:zoom="5.9171286"
     inkscape:cx="31.180664"
     inkscape:cy="8.0275422"
     inkscape:current-layer="svg1" />
  <defs
     id="defs1" />
  <g
     id="g1"
     transform="translate(1.2477342,-6.290911)">
    <path
       id="path2"
       style="fill:#ffffff;fill-opacity:1;fill-rule:nonzero;stroke:none;stroke-width:0.133333"
       d="M 3.12658e-4,6.2909111 V 12.525287 H 1.2464064 V 6.2909111 Z m 2.494140642,0 V 12.525287 H 3.740547 v 1.248047 H 4.9885939 V 12.525287 H 6.2346876 V 6.2909111 Z m 3.7402343,6.2343759 v 1.248047 H 4.9885939 v 8.730468 H 9.9768751 V 13.773334 H 11.224922 V 12.525287 H 8.7307814 v 1.248047 H 7.4827345 v -1.248047 z m 1.2480469,0 H 8.7307814 V 6.2909111 H 7.4827345 Z m 3.7421875,0 h 1.248047 V 6.2909111 h -1.248047 z m 1.248047,0 v 1.248047 8.730468 h 2.49414 v -8.730468 h -1.248046 v -1.248047 z m 2.49414,1.248047 h 1.246094 v -1.248047 h -1.246094 z m 1.246094,0 v 8.730468 h 2.494141 v -8.730468 h 1.248047 v -1.248047 h -2.49414 v 1.248047 z m 3.742188,-1.248047 h 1.248046 V 6.2909111 h -1.248046 z m 1.248046,0 v 1.248047 h 1.246095 v -1.248047 z m 1.246095,0 h 2.49414 v 1.248047 h 1.248046 v -1.248047 h 1.246095 v 1.248047 h 7.484375 V 12.525287 H 28.68586 V 6.2909111 h -6.236328 z m 12.472656,1.248047 v 8.730468 h 3.742187 v -8.730468 h -1.248046 v -1.248047 h -1.246095 v 1.248047 z m 2.494141,-1.248047 h 1.248046 V 6.2909111 h -1.248046 z m 1.248046,0 v 1.248047 h 1.246094 v -1.248047 z m 1.246094,0 h 1.248046 V 6.2909111 h -1.248046 z m 1.248046,0 v 1.248047 h -1.248046 v 8.730468 h 2.496093 v -8.730468 h 1.246095 v -1.248047 z m 2.494142,1.248047 v 8.730468 h 2.49414 v -8.730468 -1.248047 h -1.246094 v 1.248047 z m 2.49414,-1.248047 h 1.248048 V 6.2909111 h -1.248048 z m 1.248048,0 v 1.248047 h 1.246093 v -1.248047 z m 1.246093,0 h 4.990234 v 1.248047 h 2.49414 V 12.525287 H 54.879219 V 6.2909111 h -6.238281 z m 7.484374,0 h 1.248047 V 6.2909111 h -1.248047 z m -2.49414,1.248047 h -3.742187 v 8.730468 h 3.742187 z m -28.6875,0 h -2.49414 v 8.730468 h 2.49414 z m -3.740235,0 h -1.248046 v 8.730468 h 1.248046 z M 58.619454,6.2909111 V 12.525287 H 59.8675 V 6.2909111 Z M -1.2477342,13.773334 v 8.730468 H 3.12658e-4 v -8.730468 z m 2.4941406,0 v 8.730468 h 1.2480469 v -8.730468 z m 56.1269526,0 v 8.730468 h 1.246095 v -8.730468 z m 2.494141,0 v 8.730468 h 1.246094 v -8.730468 z" />
  </g>
</svg>
