<svg width="35" height="681" viewBox="0 0 35 681" fill="none" xmlns="http://www.w3.org/2000/svg">
<path fill-rule="evenodd" clip-rule="evenodd" d="M34.9116 0L34.9116 52.8932L6.62905e-05 52.8932L6.86646e-05 -1.48619e-06L34.9116 0ZM34.9116 59.5049L34.9116 66.1165L6.5697e-05 66.1165L6.59938e-05 59.5049L34.9116 59.5049ZM34.9116 72.7281L34.9116 79.3398L6.51035e-05 79.3398L6.54003e-05 72.7281L34.9116 72.7281ZM34.9116 85.9515L34.9116 92.5631L6.451e-05 92.5631L6.48068e-05 85.9515L34.9116 85.9515ZM34.9116 112.398L34.9116 138.845L23.2744 138.845L23.2744 132.233L11.6372 132.233L11.6372 125.621L17.4558 125.621L17.4558 119.01L11.6372 119.01L11.6372 125.621L5.81866 125.621L5.81865 132.233L11.6372 132.233L11.6372 138.845L6.24327e-05 138.845L6.36198e-05 112.398L34.9116 112.398ZM34.9116 145.456L34.9116 152.068L23.2744 152.068L23.2744 145.456L34.9116 145.456ZM34.9116 158.68L34.9116 165.291L23.2744 165.291L23.2744 158.68L34.9116 158.68ZM34.9116 171.903L34.9116 198.35L23.2744 198.35L23.2744 204.961L5.81865 204.961L5.81865 198.35L11.6372 198.35L11.6372 178.515L17.4558 178.515L17.4558 165.291L23.2744 165.291L23.2744 191.738L29.093 191.738L29.093 171.903L34.9116 171.903ZM34.9116 224.796L34.9116 251.243L29.093 251.243L29.093 244.631L23.2744 244.631L23.2744 231.408L17.4558 231.408L17.4558 244.631L11.6372 244.631L11.6372 231.408L5.82782e-05 231.408L5.8575e-05 224.796L34.9116 224.796ZM34.9116 257.854L34.9116 264.466L29.093 264.466L29.093 257.854L34.9116 257.854ZM34.9116 271.078L34.9116 277.689L29.093 277.689L29.093 290.913L23.2744 290.913L23.2744 284.301L17.4558 284.301L17.4558 290.913L5.81865 290.913L5.81865 277.689L5.62009e-05 277.689L5.64977e-05 271.078L5.81865 271.078L5.81865 264.466L11.6372 264.466L11.6372 277.689L17.4558 277.689L17.4558 271.078L23.2744 271.078L23.2744 264.466L29.093 264.466L29.093 271.078L34.9116 271.078ZM34.9116 290.913L34.9116 317.359L29.093 317.359L29.093 330.583L23.2744 330.583L23.2744 317.359L17.4558 317.359L17.4558 330.583L5.81865 330.583L5.81865 323.971L11.6372 323.971L11.6372 304.136L17.4558 304.136L17.4558 297.524L23.2744 297.524L23.2744 310.748L29.093 310.748L29.093 290.913L34.9116 290.913ZM34.9116 337.194L34.9116 363.641L29.093 363.641L29.093 376.864L34.9116 376.864L34.9116 403.311L23.2744 403.311L23.2744 396.699L29.093 396.699L29.093 390.087L23.2744 390.087L23.2744 383.476L5.81864 383.476L5.81864 376.864L5.17496e-05 376.864L5.29367e-05 350.417L11.6372 350.417L11.6372 343.806L5.32334e-05 343.806L5.35302e-05 337.194L34.9116 337.194ZM34.9116 416.534L34.9116 423.146L23.2744 423.146L23.2744 409.922L29.093 409.922L29.093 416.534L34.9116 416.534ZM34.9116 429.757L34.9116 436.369L29.093 436.369L29.093 429.757L34.9116 429.757ZM34.9116 449.592L34.9116 476.039L29.093 476.039L29.093 482.65L34.9116 482.65L34.9116 489.262L23.2744 489.262L23.2744 482.65L17.4558 482.65L17.4558 502.485L11.6372 502.485L11.6372 509.097L5.81864 509.097L5.81864 522.32L11.6372 522.32L11.6372 515.709L17.4558 515.709L17.4558 509.097L34.9116 509.097L34.9116 535.544L29.093 535.544L29.093 542.155L23.2744 542.155L23.2744 535.544L17.4558 535.544L17.4558 542.155L11.6372 542.155L11.6372 535.544L5.81864 535.544L5.81864 528.932L4.49243e-05 528.932L4.64081e-05 495.874L5.81864 495.874L5.81864 489.262L11.6372 489.262L11.6372 482.65L5.81864 482.65L5.81864 476.039L23.2744 476.039L23.2744 469.427L5.81864 469.427L5.81864 476.039L4.72984e-05 476.039L4.84854e-05 449.592L34.9116 449.592ZM34.9116 495.874L34.9116 502.485L23.2744 502.485L23.2744 495.874L34.9116 495.874ZM34.9116 561.99L34.9116 608.272L4.13633e-05 608.272L4.34406e-05 561.99L34.9116 561.99ZM34.9116 614.883L34.9116 621.495L4.07698e-05 621.495L4.10665e-05 614.883L34.9116 614.883ZM34.9116 641.33L34.9116 647.942L3.95828e-05 647.942L3.98795e-05 641.33L34.9116 641.33ZM34.9116 654.553L34.9116 661.165L3.89893e-05 661.165L3.9286e-05 654.553L34.9116 654.553ZM34.9116 674.388L34.9116 681L3.8099e-05 681L3.83958e-05 674.388L34.9116 674.388ZM29.093 251.243L29.093 257.854L23.2744 257.854L23.2744 264.466L11.6372 264.466L11.6372 257.854L17.4558 257.854L17.4558 244.631L23.2744 244.631L23.2744 251.243L29.093 251.243ZM29.093 343.806L17.4558 343.806L17.4558 357.029L11.6372 357.029L11.6372 363.641L17.4558 363.641L17.4558 357.029L23.2744 357.029L23.2744 350.417L29.093 350.417L29.093 343.806ZM29.093 515.709L23.2744 515.709L23.2744 522.32L29.093 522.32L29.093 515.709ZM23.2744 138.845L23.2744 145.456L17.4558 145.456L17.4558 152.068L23.2744 152.068L23.2744 158.68L17.4558 158.68L17.4558 165.291L5.81865 165.291L5.81865 185.126L6.03555e-05 185.126L6.15425e-05 158.68L5.81865 158.68L5.81865 152.068L6.18392e-05 152.068L6.2136e-05 145.456L11.6372 145.456L11.6372 138.845L23.2744 138.845ZM23.2744 390.087L23.2744 396.699L17.4558 396.699L17.4558 390.087L23.2744 390.087ZM23.2744 423.146L23.2744 429.757L17.4558 429.757L17.4558 423.146L23.2744 423.146ZM23.2744 456.204L11.6372 456.204L11.6372 462.816L23.2744 462.816L23.2744 456.204ZM17.4558 396.699L17.4558 403.311L11.6372 403.311L11.6372 396.699L17.4558 396.699ZM17.4558 436.369L17.4558 442.981L5.81864 442.981L5.81864 436.369L4.90789e-05 436.369L4.96724e-05 423.146L11.6372 423.146L11.6372 436.369L17.4558 436.369ZM11.6372 251.243L11.6372 257.854L5.81865 257.854L5.81865 264.466L5.67944e-05 264.466L5.76847e-05 244.631L5.81865 244.631L5.81865 251.243L11.6372 251.243ZM11.6372 403.311L11.6372 409.922L5.02659e-05 409.922L5.08594e-05 396.699L5.81864 396.699L5.81864 403.311L11.6372 403.311ZM5.81865 191.738L5.81865 198.35L5.9762e-05 198.35L6.00587e-05 191.738L5.81865 191.738ZM5.81865 297.524L5.81865 310.748L5.47172e-05 310.748L5.53107e-05 297.524L5.81865 297.524ZM5.81864 482.65L5.81864 489.262L4.67048e-05 489.262L4.70016e-05 482.65L5.81864 482.65ZM5.81864 535.544L5.81864 548.767L4.40341e-05 548.767L4.46276e-05 535.544L5.81864 535.544Z" fill="#B6B6B6"/>
</svg>
