<svg width="14" height="418" viewBox="0 0 14 418" fill="none" xmlns="http://www.w3.org/2000/svg">
<path d="M11.7601 414.426C11.7601 415.079 11.6481 415.644 11.4241 416.12C11.2001 416.596 10.8828 416.965 10.4721 417.226C10.0521 417.487 9.55278 417.623 8.97412 417.632L8.97412 416.512C9.52478 416.512 9.96345 416.325 10.2901 415.952C10.6075 415.579 10.7661 415.07 10.7661 414.426C10.7661 413.81 10.6121 413.329 10.3041 412.984C9.99612 412.629 9.57145 412.452 9.03012 412.452C8.58212 412.452 8.19478 412.573 7.86812 412.816C7.53212 413.059 7.29878 413.399 7.16812 413.838L6.74812 415.168C6.54278 415.868 6.19278 416.409 5.69812 416.792C5.19412 417.165 4.60612 417.352 3.93412 417.352C3.38345 417.352 2.91212 417.231 2.52012 416.988C2.11878 416.745 1.80612 416.405 1.58212 415.966C1.35812 415.518 1.24612 414.995 1.24612 414.398C1.24612 413.511 1.49345 412.802 1.98812 412.27C2.48278 411.738 3.14545 411.472 3.97612 411.472L3.97612 412.578C3.44412 412.578 3.02412 412.741 2.71612 413.068C2.40812 413.395 2.25412 413.843 2.25412 414.412C2.25412 414.981 2.39412 415.429 2.67412 415.756C2.94478 416.073 3.33212 416.232 3.83612 416.232C4.27478 416.232 4.65745 416.111 4.98412 415.868C5.31078 415.625 5.54412 415.285 5.68412 414.846L6.10412 413.516C6.31878 412.825 6.68278 412.289 7.19612 411.906C7.70945 411.523 8.31145 411.332 9.00212 411.332C9.55278 411.332 10.0381 411.463 10.4581 411.724C10.8688 411.976 11.1908 412.335 11.4241 412.802C11.6481 413.259 11.7601 413.801 11.7601 414.426ZM11.6201 406.648L7.77012 406.648L1.40012 409.742L1.40012 408.594L5.71212 406.494C5.93612 406.382 6.13212 406.293 6.30012 406.228C6.46812 406.153 6.59412 406.102 6.67812 406.074C6.59412 406.046 6.46812 405.994 6.30012 405.92C6.13212 405.845 5.93612 405.756 5.71212 405.654L1.40012 403.582L1.40012 402.434L7.77012 405.528L11.6201 405.528L11.6201 406.648ZM11.6201 400.535L1.40012 400.535L1.40012 398.001C1.40012 397.348 1.52612 396.783 1.77812 396.307C2.03012 395.822 2.38945 395.448 2.85612 395.187C3.31345 394.926 3.85012 394.795 4.46612 394.795L8.54012 394.795C9.16545 394.795 9.71145 394.926 10.1781 395.187C10.6354 395.448 10.9901 395.822 11.2421 396.307C11.4941 396.783 11.6201 397.348 11.6201 398.001L11.6201 400.535ZM10.6261 399.429L10.6261 398.001C10.6261 397.348 10.4394 396.834 10.0661 396.461C9.69278 396.088 9.18412 395.901 8.54012 395.901L4.46612 395.901C3.83145 395.901 3.32745 396.092 2.95412 396.475C2.58078 396.848 2.39412 397.357 2.39412 398.001L2.39412 399.429L10.6261 399.429ZM7.49012 391.538L6.51012 391.538L6.51012 387.058L7.49012 387.058L7.49012 391.538ZM11.6201 384.334L1.40012 381.632L1.40012 380.162L11.6201 377.474L11.6201 378.594L8.84812 379.308L8.84812 382.5L11.6201 383.2L11.6201 384.334ZM7.89612 382.276L7.89612 379.546L4.48011 380.414C3.91078 380.554 3.43478 380.666 3.05211 380.75C2.66011 380.834 2.40812 380.885 2.29612 380.904C2.40812 380.923 2.66011 380.974 3.05211 381.058C3.43478 381.142 3.91078 381.254 4.48011 381.394L7.89612 382.276ZM11.7601 372.509C11.7601 373.424 11.4988 374.133 10.9761 374.637C10.4534 375.132 9.74878 375.379 8.86212 375.379L1.40012 375.379L1.40012 374.273L8.86212 374.273C9.45012 374.273 9.91678 374.124 10.2621 373.825C10.5981 373.527 10.7661 373.088 10.7661 372.509C10.7661 371.931 10.5981 371.492 10.2621 371.193C9.91678 370.895 9.45012 370.745 8.86211 370.745L1.40011 370.745L1.40011 369.639L8.86211 369.639C9.75811 369.639 10.4674 369.887 10.9901 370.381C11.5034 370.876 11.7601 371.585 11.7601 372.509ZM7.49011 366.355L6.51011 366.355L6.51011 361.875L7.49011 361.875L7.49011 366.355ZM11.6201 358.59L1.40011 358.59L1.40011 357.106L10.3321 353.816C10.1174 353.826 9.85611 353.84 9.54811 353.858C9.23078 353.877 8.90878 353.896 8.58211 353.914C8.25545 353.924 7.96145 353.928 7.70011 353.928L1.40011 353.928L1.40011 352.85L11.6201 352.85L11.6201 354.348L2.68811 357.61C2.87478 357.592 3.11745 357.578 3.41611 357.568C3.70545 357.559 4.01811 357.55 4.35411 357.54C4.68078 357.522 5.00278 357.512 5.32011 357.512L11.6201 357.512L11.6201 358.59ZM11.7601 347.27C11.7601 347.923 11.6481 348.488 11.4241 348.964C11.2001 349.44 10.8828 349.808 10.4721 350.07C10.0521 350.331 9.55278 350.466 8.97411 350.476L8.97411 349.356C9.52478 349.356 9.96345 349.169 10.2901 348.796C10.6074 348.422 10.7661 347.914 10.7661 347.27C10.7661 346.654 10.6121 346.173 10.3041 345.828C9.99611 345.473 9.57145 345.296 9.03011 345.296C8.58211 345.296 8.19478 345.417 7.86811 345.66C7.53211 345.902 7.29878 346.243 7.16811 346.682L6.74811 348.012C6.54278 348.712 6.19278 349.253 5.69811 349.636C5.19411 350.009 4.60611 350.196 3.93411 350.196C3.38345 350.196 2.91211 350.074 2.52011 349.832C2.11878 349.589 1.80611 349.248 1.58211 348.81C1.35811 348.362 1.24611 347.839 1.24611 347.242C1.24611 346.355 1.49345 345.646 1.98811 345.114C2.48278 344.582 3.14545 344.316 3.97611 344.316L3.97611 345.422C3.44411 345.422 3.02411 345.585 2.71611 345.912C2.40811 346.238 2.25411 346.686 2.25411 347.256C2.25411 347.825 2.39411 348.273 2.67411 348.6C2.94478 348.917 3.33211 349.076 3.83611 349.076C4.27478 349.076 4.65745 348.954 4.98411 348.712C5.31078 348.469 5.54411 348.128 5.68411 347.69L6.10411 346.36C6.31878 345.669 6.68278 345.132 7.19611 344.75C7.70945 344.367 8.31145 344.176 9.00211 344.176C9.55278 344.176 10.0381 344.306 10.4581 344.568C10.8688 344.82 11.1908 345.179 11.4241 345.646C11.6481 346.103 11.7601 346.644 11.7601 347.27ZM11.6201 341.521L1.40011 342.725L1.40011 341.675L8.96011 340.849C9.15611 340.831 9.37078 340.812 9.60411 340.793C9.82811 340.765 10.0521 340.742 10.2761 340.723C10.4908 340.705 10.6728 340.695 10.8221 340.695C10.6728 340.677 10.4908 340.658 10.2761 340.639C10.0521 340.611 9.82811 340.583 9.60411 340.555C9.37078 340.527 9.15611 340.499 8.96011 340.471L1.40011 339.491L1.40011 338.301L8.96011 337.391C9.15611 337.363 9.37078 337.335 9.60411 337.307C9.82811 337.279 10.0521 337.251 10.2761 337.223C10.4908 337.195 10.6728 337.177 10.8221 337.167C10.6728 337.149 10.4908 337.13 10.2761 337.111C10.0521 337.093 9.82811 337.069 9.60411 337.041C9.37078 337.013 9.15611 336.99 8.96011 336.971L1.40011 336.159L1.40011 335.137L11.6201 336.355L11.6201 337.783L3.99011 338.693C3.77545 338.721 3.55611 338.749 3.33211 338.777C3.10811 338.796 2.89811 338.819 2.70211 338.847C2.49678 338.866 2.32878 338.885 2.19811 338.903C2.32878 338.913 2.49211 338.931 2.68811 338.959C2.88411 338.987 3.09878 339.015 3.33211 339.043C3.55611 339.062 3.77545 339.085 3.99011 339.113L11.6201 340.107L11.6201 341.521ZM7.49011 332.777L6.51011 332.777L6.51011 328.297L7.49011 328.297L7.49011 332.777ZM11.7601 322.142C11.7601 322.758 11.6388 323.295 11.3961 323.752C11.1441 324.21 10.7941 324.564 10.3461 324.816C9.88878 325.059 9.35678 325.18 8.75011 325.18L4.27011 325.18C3.65411 325.18 3.12211 325.059 2.67411 324.816C2.22611 324.564 1.88078 324.21 1.63811 323.752C1.38611 323.295 1.26011 322.758 1.26011 322.142C1.26011 321.517 1.38611 320.98 1.63811 320.532C1.88078 320.075 2.22611 319.725 2.67411 319.482C3.12211 319.23 3.65411 319.104 4.27011 319.104L8.75011 319.104C9.36611 319.104 9.89811 319.23 10.3461 319.482C10.7941 319.725 11.1441 320.075 11.3961 320.532C11.6388 320.99 11.7601 321.526 11.7601 322.142ZM10.7801 322.142C10.7801 321.554 10.5934 321.088 10.2201 320.742C9.84678 320.388 9.35678 320.21 8.75011 320.21L4.27011 320.21C3.66345 320.21 3.17345 320.388 2.80011 320.742C2.42678 321.088 2.24011 321.554 2.24011 322.142C2.24011 322.73 2.42678 323.202 2.80011 323.556C3.17345 323.902 3.66345 324.074 4.27011 324.074L8.75011 324.074C9.35678 324.074 9.84678 323.902 10.2201 323.556C10.5934 323.202 10.7801 322.73 10.7801 322.142ZM7.29411 322.142C7.29411 322.385 7.21945 322.581 7.07011 322.73C6.91145 322.87 6.71078 322.94 6.46811 322.94C6.22545 322.94 6.03411 322.87 5.89411 322.73C5.74478 322.581 5.67011 322.385 5.67011 322.142C5.67011 321.9 5.74478 321.708 5.89411 321.568C6.03411 321.419 6.22545 321.344 6.46811 321.344C6.71078 321.344 6.91145 321.419 7.07011 321.568C7.21945 321.708 7.29411 321.9 7.29411 322.142ZM11.6201 316.646L10.4721 316.646L7.16811 313.496C6.58011 312.936 6.04811 312.525 5.57211 312.264C5.09611 312.002 4.63411 311.872 4.18611 311.872C3.58878 311.872 3.11745 312.044 2.77211 312.39C2.41745 312.726 2.24011 313.188 2.24011 313.776C2.24011 314.392 2.41745 314.882 2.77211 315.246C3.12678 315.6 3.61211 315.778 4.22811 315.778L4.22811 316.898C3.62145 316.879 3.09411 316.739 2.64611 316.478C2.19811 316.216 1.85745 315.857 1.62411 315.4C1.38145 314.933 1.26011 314.392 1.26011 313.776C1.26011 313.16 1.37678 312.628 1.61011 312.18C1.84345 311.722 2.17945 311.372 2.61811 311.13C3.04745 310.887 3.56545 310.766 4.17211 310.766C4.76011 310.766 5.34811 310.924 5.93611 311.242C6.52411 311.559 7.18211 312.068 7.91011 312.768L10.6121 315.428L10.6121 310.57L11.6201 310.57L11.6201 316.646ZM13.1601 305.913L0.000111734 305.913L0.000111686 304.793L13.1601 304.793L13.1601 305.913ZM11.7601 296.959C11.7601 297.575 11.6528 298.111 11.4381 298.569C11.2234 299.026 10.9154 299.381 10.5141 299.633C10.1034 299.875 9.62278 299.997 9.07211 299.997C8.46545 299.997 7.94278 299.833 7.50411 299.507C7.06545 299.171 6.67345 298.634 6.32811 297.897L5.67011 296.567C5.45545 296.109 5.18944 295.769 4.87211 295.545C4.54544 295.311 4.18611 295.195 3.79411 295.195C3.31811 295.195 2.94011 295.353 2.66011 295.671C2.38011 295.988 2.24011 296.417 2.24011 296.959C2.24011 297.491 2.38478 297.915 2.67411 298.233C2.95411 298.541 3.33211 298.695 3.80811 298.695C4.20011 298.695 4.55478 298.583 4.87211 298.359C5.18945 298.135 5.45078 297.813 5.65611 297.393L6.30011 296.063C6.66411 295.307 7.06544 294.761 7.50411 294.425C7.94278 294.089 8.46545 293.921 9.07211 293.921C9.89345 293.921 10.5468 294.196 11.0321 294.747C11.5174 295.288 11.7601 296.025 11.7601 296.959ZM10.7661 296.959C10.7661 296.361 10.6121 295.89 10.3041 295.545C9.99611 295.19 9.58078 295.013 9.05811 295.013C8.63811 295.013 8.25544 295.129 7.91011 295.363C7.56478 295.596 7.28478 295.937 7.07011 296.385L6.41211 297.701C6.06678 298.419 5.68411 298.947 5.26411 299.283C4.84411 299.619 4.34478 299.787 3.76611 299.787C3.26211 299.787 2.82345 299.67 2.45011 299.437C2.06744 299.203 1.77344 298.877 1.56811 298.457C1.35344 298.027 1.24611 297.528 1.24611 296.959C1.24611 296.389 1.35344 295.89 1.56811 295.461C1.77344 295.031 2.06744 294.7 2.45011 294.467C2.82344 294.224 3.26211 294.103 3.76611 294.103C4.33544 294.103 4.83011 294.271 5.25011 294.607C5.67011 294.943 6.06211 295.489 6.42611 296.245L7.07011 297.561C7.28478 297.999 7.56478 298.335 7.91011 298.569C8.24611 298.793 8.62411 298.905 9.04411 298.905C9.56678 298.905 9.98678 298.732 10.3041 298.387C10.6121 298.032 10.7661 297.556 10.7661 296.959ZM11.6201 291.406L1.40011 291.406L1.40011 288.872C1.40011 288.219 1.52611 287.654 1.77811 287.178C2.03011 286.693 2.38944 286.319 2.85611 286.058C3.31344 285.797 3.85011 285.666 4.46611 285.666L8.54011 285.666C9.16544 285.666 9.71144 285.797 10.1781 286.058C10.6354 286.319 10.9901 286.693 11.2421 287.178C11.4941 287.654 11.6201 288.219 11.6201 288.872L11.6201 291.406ZM10.6261 290.3L10.6261 288.872C10.6261 288.219 10.4394 287.705 10.0661 287.332C9.69278 286.959 9.18411 286.772 8.54011 286.772L4.46611 286.772C3.83144 286.772 3.32744 286.963 2.95411 287.346C2.58078 287.719 2.39411 288.228 2.39411 288.872L2.39411 290.3L10.6261 290.3ZM11.7601 280.184C11.7601 281.014 11.5454 281.691 11.1161 282.214C10.6774 282.736 10.0894 283.04 9.35211 283.124L9.35211 282.018C9.80011 281.971 10.1501 281.789 10.4021 281.472C10.6448 281.154 10.7661 280.725 10.7661 280.184C10.7661 279.577 10.5981 279.115 10.2621 278.798C9.91678 278.48 9.43144 278.322 8.80611 278.322L7.82611 278.322C7.21011 278.322 6.73411 278.48 6.39811 278.798C6.05278 279.106 5.88011 279.563 5.88011 280.17C5.88011 280.562 5.98744 280.902 6.20211 281.192C6.40744 281.481 6.69211 281.686 7.05611 281.808L7.05611 282.914L1.40011 282.844L1.40011 277.552L2.40811 277.552L2.40811 281.766L6.04811 281.808L6.04811 281.444L6.44011 281.822C5.96411 281.822 5.59078 281.64 5.32011 281.276C5.04011 280.912 4.90011 280.426 4.90011 279.82C4.89078 278.989 5.14744 278.35 5.67011 277.902C6.18344 277.444 6.90211 277.216 7.82611 277.216L8.80611 277.216C9.71144 277.216 10.4301 277.477 10.9621 278C11.4941 278.522 11.7601 279.25 11.7601 280.184ZM11.6201 275.205L1.40011 272.503L1.40011 271.033L11.6201 268.345L11.6201 269.465L8.84811 270.179L8.84811 273.371L11.6201 274.071L11.6201 275.205ZM7.89611 273.147L7.89611 270.417L4.48011 271.285C3.91078 271.425 3.43478 271.537 3.05211 271.621C2.66011 271.705 2.40811 271.756 2.29611 271.775C2.40811 271.794 2.66011 271.845 3.05211 271.929C3.43478 272.013 3.91078 272.125 4.48011 272.265L7.89611 273.147ZM11.7601 263.367C11.7601 264.011 11.6248 264.575 11.3541 265.061C11.0741 265.537 10.6914 265.905 10.2061 266.167C9.71144 266.428 9.13744 266.559 8.48411 266.559C7.98944 266.559 7.50411 266.489 7.02811 266.349C6.55211 266.209 6.09011 265.999 5.64211 265.719L1.40011 263.129L1.40011 261.897L6.09011 264.809L6.13211 264.753C5.89878 264.585 5.70744 264.342 5.55811 264.025C5.39944 263.707 5.32011 263.343 5.32011 262.933C5.32011 262.382 5.45078 261.901 5.71211 261.491C5.97344 261.08 6.34211 260.763 6.81811 260.539C7.28478 260.315 7.84011 260.203 8.48411 260.203C9.13744 260.203 9.71144 260.333 10.2061 260.595C10.6914 260.856 11.0741 261.225 11.3541 261.701C11.6248 262.177 11.7601 262.732 11.7601 263.367ZM10.7661 263.381C10.7661 262.755 10.5608 262.256 10.1501 261.883C9.73011 261.5 9.17478 261.309 8.48411 261.309C7.81211 261.309 7.27078 261.5 6.86011 261.883C6.44944 262.256 6.24411 262.755 6.24411 263.381C6.24411 263.997 6.44944 264.496 6.86011 264.879C7.27078 265.261 7.81211 265.453 8.48411 265.453C9.17478 265.462 9.73011 265.275 10.1501 264.893C10.5608 264.51 10.7661 264.006 10.7661 263.381ZM11.6201 257.828L1.40011 257.828L1.40011 255.294C1.40011 254.641 1.52611 254.076 1.77811 253.6C2.03011 253.115 2.38944 252.741 2.85611 252.48C3.31344 252.219 3.85011 252.088 4.46611 252.088L8.54011 252.088C9.16544 252.088 9.71144 252.219 10.1781 252.48C10.6354 252.741 10.9901 253.115 11.2421 253.6C11.4941 254.076 11.6201 254.641 11.6201 255.294L11.6201 257.828ZM10.6261 256.722L10.6261 255.294C10.6261 254.641 10.4394 254.127 10.0661 253.754C9.69278 253.381 9.18411 253.194 8.54011 253.194L4.46611 253.194C3.83144 253.194 3.32744 253.385 2.95411 253.768C2.58078 254.141 2.39411 254.65 2.39411 255.294L2.39411 256.722L10.6261 256.722ZM11.6201 249.489L10.6121 249.489L10.6121 246.689L2.33811 246.689L4.39611 249.461L3.16411 249.461L1.40011 247.081L1.40011 245.583L10.6121 245.583L10.6121 243.273L11.6201 243.273L11.6201 249.489ZM11.6201 241.095L10.6121 241.095L10.6121 238.295L2.33811 238.295L4.39611 241.067L3.16411 241.067L1.40011 238.687L1.40011 237.189L10.6121 237.189L10.6121 234.879L11.6201 234.879L11.6201 241.095ZM7.49011 232.042L6.51011 232.042L6.51011 227.562L7.49011 227.562L7.49011 232.042ZM11.6201 222.934L2.43611 219.266L2.43611 223.34L4.10211 223.34L4.10211 224.474L1.40011 224.474L1.40011 218.16L2.50611 218.16L11.6201 221.716L11.6201 222.934ZM11.7601 212.943C11.7601 213.55 11.6434 214.077 11.4101 214.525C11.1768 214.964 10.8408 215.305 10.4021 215.547C9.96344 215.79 9.45011 215.911 8.86211 215.911L4.15811 215.911C3.56077 215.911 3.04744 215.79 2.61811 215.547C2.17944 215.305 1.84344 214.964 1.61011 214.525C1.37677 214.077 1.26011 213.55 1.26011 212.943C1.26011 212.346 1.38144 211.828 1.62411 211.389C1.85744 210.941 2.19344 210.596 2.63211 210.353C3.07077 210.111 3.59344 209.989 4.20011 209.989L4.20011 211.095C3.58411 211.095 3.10811 211.259 2.77211 211.585C2.42677 211.912 2.25411 212.365 2.25411 212.943C2.25411 213.522 2.42211 213.979 2.75811 214.315C3.08477 214.642 3.55144 214.805 4.15811 214.805L8.86211 214.805C9.45944 214.805 9.92611 214.642 10.2621 214.315C10.5981 213.979 10.7661 213.522 10.7661 212.943C10.7661 212.365 10.5981 211.912 10.2621 211.585C9.91677 211.259 9.43611 211.095 8.82011 211.095L8.82011 209.989C9.41744 209.989 9.94011 210.111 10.3881 210.353C10.8268 210.596 11.1674 210.941 11.4101 211.389C11.6434 211.828 11.7601 212.346 11.7601 212.943ZM11.6201 207.517L10.4721 207.517L7.16811 204.367C6.58011 203.807 6.04811 203.396 5.57211 203.135C5.09611 202.873 4.63411 202.743 4.18611 202.743C3.58877 202.743 3.11744 202.915 2.77211 203.261C2.41744 203.597 2.24011 204.059 2.24011 204.647C2.24011 205.263 2.41744 205.753 2.77211 206.117C3.12677 206.471 3.61211 206.649 4.22811 206.649L4.22811 207.769C3.62144 207.75 3.09411 207.61 2.64611 207.349C2.19811 207.087 1.85744 206.728 1.62411 206.271C1.38144 205.804 1.26011 205.263 1.26011 204.647C1.26011 204.031 1.37677 203.499 1.61011 203.051C1.84344 202.593 2.17944 202.243 2.61811 202.001C3.04744 201.758 3.56544 201.637 4.17211 201.637C4.76011 201.637 5.34811 201.795 5.93611 202.113C6.52411 202.43 7.18211 202.939 7.91011 203.639L10.6121 206.299L10.6121 201.441L11.6201 201.441L11.6201 207.517ZM11.7601 196.238C11.7601 197.069 11.5454 197.746 11.1161 198.268C10.6774 198.791 10.0894 199.094 9.35211 199.178L9.35211 198.072C9.80011 198.026 10.1501 197.844 10.4021 197.526C10.6448 197.209 10.7661 196.78 10.7661 196.238C10.7661 195.632 10.5981 195.17 10.2621 194.852C9.91677 194.535 9.43144 194.376 8.80611 194.376L7.82611 194.376C7.21011 194.376 6.73411 194.535 6.39811 194.852C6.05277 195.16 5.88011 195.618 5.88011 196.224C5.88011 196.616 5.98744 196.957 6.20211 197.246C6.40744 197.536 6.69211 197.741 7.05611 197.862L7.05611 198.968L1.40011 198.898L1.40011 193.606L2.40811 193.606L2.40811 197.82L6.04811 197.862L6.04811 197.498L6.44011 197.876C5.96411 197.876 5.59077 197.694 5.32011 197.33C5.04011 196.966 4.90011 196.481 4.90011 195.874C4.89077 195.044 5.14744 194.404 5.67011 193.956C6.18344 193.499 6.90211 193.27 7.82611 193.27L8.80611 193.27C9.71144 193.27 10.4301 193.532 10.9621 194.054C11.4941 194.577 11.7601 195.305 11.7601 196.238ZM7.49011 190.07L6.51011 190.07L6.51011 185.59L7.49011 185.59L7.49011 190.07ZM11.6201 177.797L9.33811 177.797L9.33811 182.445L7.51811 182.445L1.40011 178.385L1.40011 177.181L7.77011 181.325L8.33011 181.325L8.33011 177.797L5.74011 177.797L5.74011 176.691L11.6201 176.691L11.6201 177.797ZM11.6201 169.403L9.33811 169.403L9.33811 174.051L7.51811 174.051L1.40011 169.991L1.40011 168.787L7.77011 172.931L8.33011 172.931L8.33011 169.403L5.74011 169.403L5.74011 168.297L11.6201 168.297L11.6201 169.403ZM11.6201 161.008L9.33811 161.008L9.33811 165.656L7.51811 165.656L1.40011 161.596L1.40011 160.392L7.77011 164.536L8.33011 164.536L8.33011 161.008L5.74011 161.008L5.74011 159.902L11.6201 159.902L11.6201 161.008ZM11.6201 157.15L10.4721 157.15L7.16811 154C6.58011 153.44 6.04811 153.029 5.57211 152.768C5.09611 152.506 4.63411 152.376 4.18611 152.376C3.58877 152.376 3.11744 152.548 2.77211 152.894C2.41744 153.23 2.24011 153.692 2.24011 154.28C2.24011 154.896 2.41744 155.386 2.77211 155.75C3.12677 156.104 3.61211 156.282 4.22811 156.282L4.22811 157.402C3.62144 157.383 3.09411 157.243 2.64611 156.982C2.19811 156.72 1.85744 156.361 1.62411 155.904C1.38144 155.437 1.26011 154.896 1.26011 154.28C1.26011 153.664 1.37677 153.132 1.61011 152.684C1.84344 152.226 2.17944 151.876 2.61811 151.634C3.04744 151.391 3.56544 151.27 4.17211 151.27C4.76011 151.27 5.34811 151.428 5.93611 151.746C6.52411 152.063 7.18211 152.572 7.91011 153.272L10.6121 155.932L10.6121 151.074L11.6201 151.074L11.6201 157.15ZM7.49011 148.097L6.51011 148.097L6.51011 143.617L7.49011 143.617L7.49011 148.097ZM11.6201 140.291L1.4001 140.291L1.4001 137.477C1.4001 136.562 1.6381 135.843 2.1141 135.321C2.58077 134.798 3.22477 134.537 4.0461 134.537C4.51277 134.537 4.92344 134.635 5.2781 134.831C5.62344 135.017 5.8941 135.288 6.0901 135.643C6.27677 135.988 6.36544 136.408 6.3561 136.903L6.1601 136.903C6.1601 136.371 6.26744 135.913 6.4821 135.531C6.68744 135.139 6.99077 134.835 7.3921 134.621C7.7841 134.406 8.25077 134.299 8.7921 134.299C9.37077 134.299 9.87477 134.42 10.3041 134.663C10.7241 134.905 11.0508 135.251 11.2841 135.699C11.5081 136.147 11.6201 136.683 11.6201 137.309L11.6201 140.291ZM10.6121 139.213L10.6121 137.407C10.6121 136.781 10.4488 136.291 10.1221 135.937C9.7861 135.573 9.33344 135.391 8.7641 135.391C8.1761 135.391 7.70477 135.573 7.3501 135.937C6.9861 136.291 6.8041 136.781 6.8041 137.407L6.8041 139.213L10.6121 139.213ZM5.8381 139.213L5.8381 137.477C5.8381 136.907 5.6841 136.459 5.3761 136.133C5.0681 135.806 4.6481 135.643 4.1161 135.643C3.5841 135.643 3.16877 135.806 2.87011 136.133C2.5621 136.45 2.4081 136.898 2.4081 137.477L2.4081 139.213L5.8381 139.213ZM11.7601 128.998C11.7601 129.605 11.6434 130.132 11.4101 130.58C11.1768 131.019 10.8408 131.359 10.4021 131.602C9.96344 131.845 9.4501 131.966 8.8621 131.966L4.1581 131.966C3.56077 131.966 3.04744 131.845 2.6181 131.602C2.17944 131.359 1.84344 131.019 1.6101 130.58C1.37677 130.132 1.2601 129.605 1.2601 128.998C1.2601 128.401 1.38144 127.883 1.6241 127.444C1.85744 126.996 2.19344 126.651 2.6321 126.408C3.07077 126.165 3.59344 126.044 4.2001 126.044L4.2001 127.15C3.5841 127.15 3.1081 127.313 2.7721 127.64C2.42677 127.967 2.2541 128.419 2.2541 128.998C2.2541 129.577 2.4221 130.034 2.7581 130.37C3.08477 130.697 3.55144 130.86 4.1581 130.86L8.8621 130.86C9.45944 130.86 9.9261 130.697 10.2621 130.37C10.5981 130.034 10.7661 129.577 10.7661 128.998C10.7661 128.419 10.5981 127.967 10.2621 127.64C9.91677 127.313 9.4361 127.15 8.8201 127.15L8.8201 126.044C9.41744 126.044 9.9401 126.165 10.3881 126.408C10.8268 126.651 11.1674 126.996 11.4101 127.444C11.6434 127.883 11.7601 128.401 11.7601 128.998ZM11.6201 124.103L1.4001 121.401L1.4001 119.931L11.6201 117.243L11.6201 118.363L8.8481 119.077L8.8481 122.269L11.6201 122.969L11.6201 124.103ZM7.8961 122.045L7.8961 119.315L4.4801 120.183C3.91077 120.323 3.43477 120.435 3.0521 120.519C2.6601 120.603 2.4081 120.655 2.2961 120.673C2.4081 120.692 2.6601 120.743 3.0521 120.827C3.43477 120.911 3.91077 121.023 4.4801 121.163L7.8961 122.045ZM11.6201 115.709L1.4001 113.007L1.4001 111.537L11.6201 108.849L11.6201 109.969L8.8481 110.683L8.8481 113.875L11.6201 114.575L11.6201 115.709ZM7.8961 113.651L7.8961 110.921L4.4801 111.789C3.91077 111.929 3.43477 112.041 3.0521 112.125C2.6601 112.209 2.4081 112.26 2.2961 112.279C2.4081 112.298 2.6601 112.349 3.0521 112.433C3.43477 112.517 3.91077 112.629 4.4801 112.769L7.8961 113.651ZM7.4901 106.124L6.5101 106.124L6.5101 101.644L7.4901 101.644L7.4901 106.124ZM11.7601 95.4899C11.7601 96.1059 11.6528 96.6425 11.4381 97.0999C11.2234 97.5572 10.9154 97.9119 10.5141 98.1639C10.1034 98.4065 9.62277 98.5279 9.0721 98.5279C8.46544 98.5279 7.94277 98.3645 7.5041 98.0379C7.06544 97.7019 6.67344 97.1652 6.3281 96.4279L5.6701 95.0979C5.45544 94.6405 5.18944 94.2999 4.8721 94.0759C4.54544 93.8425 4.1861 93.7259 3.7941 93.7259C3.3181 93.7259 2.9401 93.8845 2.6601 94.2019C2.3801 94.5192 2.2401 94.9485 2.2401 95.4899C2.2401 96.0219 2.38477 96.4465 2.6741 96.7639C2.9541 97.0719 3.3321 97.2259 3.8081 97.2259C4.2001 97.2259 4.55477 97.1139 4.8721 96.8899C5.18944 96.6659 5.45077 96.3439 5.6561 95.9239L6.3001 94.5939C6.6641 93.8379 7.06544 93.2919 7.5041 92.9559C7.94277 92.6199 8.46544 92.4519 9.0721 92.4519C9.89344 92.4519 10.5468 92.7272 11.0321 93.2779C11.5174 93.8192 11.7601 94.5565 11.7601 95.4899ZM10.7661 95.4899C10.7661 94.8925 10.6121 94.4212 10.3041 94.0759C9.9961 93.7212 9.58077 93.5439 9.0581 93.5439C8.6381 93.5439 8.25544 93.6605 7.9101 93.8939C7.56477 94.1272 7.28477 94.4679 7.0701 94.9159L6.4121 96.2319C6.06677 96.9505 5.6841 97.4779 5.2641 97.8139C4.8441 98.1499 4.34477 98.3179 3.7661 98.3179C3.2621 98.3179 2.82344 98.2012 2.4501 97.9679C2.06744 97.7345 1.77344 97.4079 1.5681 96.9879C1.35344 96.5585 1.2461 96.0592 1.2461 95.4899C1.2461 94.9205 1.35344 94.4212 1.5681 93.9919C1.77344 93.5625 2.06744 93.2312 2.4501 92.9979C2.82344 92.7552 3.2621 92.6339 3.7661 92.6339C4.33544 92.6339 4.8301 92.8019 5.2501 93.1379C5.6701 93.4739 6.0621 94.0199 6.4261 94.7759L7.0701 96.0919C7.28477 96.5305 7.56477 96.8665 7.9101 97.0999C8.2461 97.3239 8.6241 97.4359 9.0441 97.4359C9.56677 97.4359 9.98677 97.2632 10.3041 96.9179C10.6121 96.5632 10.7661 96.0872 10.7661 95.4899ZM11.6201 89.9933L10.6121 89.9933L10.6121 87.1933L2.3381 87.1933L4.3961 89.9653L3.1641 89.9653L1.4001 87.5853L1.4001 86.0873L10.6121 86.0873L10.6121 83.7773L11.6201 83.7773L11.6201 89.9933ZM11.6201 80.2268L2.4361 76.5588L2.4361 80.6328L4.1021 80.6328L4.1021 81.7668L1.4001 81.7668L1.4001 75.4528L2.5061 75.4528L11.6201 79.0088L11.6201 80.2268ZM11.6201 68.6683L9.3381 68.6683L9.3381 73.3163L7.5181 73.3163L1.4001 69.2563L1.4001 68.0523L7.7701 72.1963L8.3301 72.1963L8.3301 68.6683L5.7401 68.6683L5.7401 67.5623L11.6201 67.5623L11.6201 68.6683ZM11.6201 63.3958L6.9301 60.4838L6.8881 60.5398C7.12143 60.7078 7.31743 60.9504 7.4761 61.2678C7.62544 61.5851 7.7001 61.9491 7.7001 62.3598C7.7001 62.9104 7.56944 63.3911 7.3081 63.8018C7.04677 64.2124 6.6781 64.5298 6.2021 64.7538C5.7261 64.9778 5.17077 65.0898 4.5361 65.0898C3.87343 65.0898 3.29944 64.9591 2.8141 64.6978C2.32877 64.4364 1.95077 64.0678 1.6801 63.5918C1.4001 63.1064 1.2601 62.5511 1.2601 61.9258C1.2601 61.2818 1.4001 60.7218 1.6801 60.2458C1.95077 59.7604 2.32877 59.3871 2.8141 59.1258C3.29943 58.8644 3.87343 58.7338 4.5361 58.7338C5.02143 58.7338 5.50677 58.8038 5.9921 58.9438C6.4681 59.0744 6.9301 59.2798 7.3781 59.5598L11.6201 62.1638L11.6201 63.3958ZM6.7761 61.9118C6.7761 61.2864 6.57077 60.7871 6.1601 60.4138C5.74943 60.0311 5.20343 59.8398 4.5221 59.8398C3.84077 59.8304 3.29477 60.0171 2.8841 60.3998C2.4641 60.7824 2.2541 61.2864 2.2541 61.9118C2.2541 62.5371 2.4641 63.0411 2.8841 63.4238C3.29477 63.7971 3.84543 63.9838 4.5361 63.9838C5.2081 63.9838 5.74944 63.7971 6.1601 63.4238C6.57077 63.0411 6.7761 62.5371 6.7761 61.9118ZM11.6201 55.0012L6.9301 52.0892L6.8881 52.1452C7.12143 52.3132 7.31743 52.5559 7.4761 52.8732C7.62543 53.1906 7.7001 53.5546 7.7001 53.9652C7.7001 54.5159 7.56943 54.9966 7.3081 55.4072C7.04677 55.8179 6.6781 56.1352 6.2021 56.3592C5.7261 56.5832 5.17077 56.6952 4.5361 56.6952C3.87343 56.6952 3.29943 56.5646 2.8141 56.3032C2.32877 56.0419 1.95077 55.6732 1.6801 55.1972C1.4001 54.7119 1.2601 54.1566 1.2601 53.5312C1.2601 52.8872 1.4001 52.3272 1.6801 51.8512C1.95077 51.3659 2.32877 50.9926 2.8141 50.7312C3.29943 50.4699 3.87343 50.3392 4.5361 50.3392C5.02143 50.3392 5.50677 50.4092 5.9921 50.5492C6.4681 50.6799 6.9301 50.8852 7.3781 51.1652L11.6201 53.7692L11.6201 55.0012ZM6.7761 53.5172C6.7761 52.8919 6.57077 52.3926 6.1601 52.0192C5.74943 51.6366 5.20343 51.4452 4.5221 51.4452C3.84077 51.4359 3.29477 51.6226 2.8841 52.0052C2.4641 52.3879 2.2541 52.8919 2.2541 53.5172C2.2541 54.1426 2.4641 54.6466 2.8841 55.0292C3.29477 55.4026 3.84543 55.5892 4.5361 55.5892C5.2081 55.5892 5.74943 55.4026 6.1601 55.0292C6.57077 54.6466 6.7761 54.1426 6.7761 53.5172ZM11.7601 45.2767C11.7601 45.874 11.6388 46.4014 11.3961 46.8587C11.1534 47.3067 10.8174 47.6567 10.3881 47.9087C9.94943 48.1514 9.44077 48.2727 8.8621 48.2727L8.8621 47.1527C9.45943 47.1527 9.9261 46.9847 10.2621 46.6487C10.5981 46.3127 10.7661 45.8507 10.7661 45.2627C10.7661 44.6654 10.5934 44.2034 10.2481 43.8767C9.89343 43.5407 9.43143 43.3727 8.8621 43.3727L8.0501 43.3727C7.44343 43.3727 6.97677 43.5407 6.6501 43.8767C6.3141 44.2034 6.1461 44.6654 6.1461 45.2627L6.1461 46.2287L5.0541 46.2287L2.4081 43.6527L2.4081 47.8667L1.4001 47.8667L1.4001 42.5327L2.5061 42.5327L5.3061 45.2487L5.1661 45.2487C5.1661 44.334 5.42743 43.606 5.9501 43.0647C6.46343 42.5234 7.16343 42.2527 8.0501 42.2527L8.8621 42.2527C9.44077 42.2527 9.94943 42.3787 10.3881 42.6307C10.8174 42.8827 11.1534 43.2374 11.3961 43.6947C11.6388 44.1427 11.7601 44.67 11.7601 45.2767ZM11.7601 36.7282C11.7601 37.3442 11.6388 37.8808 11.3961 38.3382C11.1441 38.7955 10.7941 39.1502 10.3461 39.4022C9.88877 39.6448 9.35677 39.7662 8.7501 39.7662L4.2701 39.7662C3.6541 39.7662 3.1221 39.6448 2.6741 39.4022C2.2261 39.1502 1.88077 38.7955 1.6381 38.3382C1.3861 37.8808 1.2601 37.3442 1.2601 36.7282C1.2601 36.1028 1.3861 35.5662 1.6381 35.1182C1.88077 34.6608 2.2261 34.3108 2.6741 34.0682C3.1221 33.8162 3.6541 33.6902 4.2701 33.6902L8.7501 33.6902C9.3661 33.6902 9.8981 33.8162 10.3461 34.0682C10.7941 34.3108 11.1441 34.6608 11.3961 35.1182C11.6388 35.5755 11.7601 36.1122 11.7601 36.7282ZM10.7801 36.7282C10.7801 36.1402 10.5934 35.6735 10.2201 35.3282C9.84677 34.9735 9.35677 34.7962 8.7501 34.7962L4.2701 34.7962C3.66343 34.7962 3.17343 34.9735 2.8001 35.3282C2.42677 35.6735 2.2401 36.1402 2.2401 36.7282C2.2401 37.3162 2.42677 37.7875 2.8001 38.1422C3.17343 38.4875 3.66343 38.6602 4.2701 38.6602L8.7501 38.6602C9.35677 38.6602 9.84677 38.4875 10.2201 38.1422C10.5934 37.7875 10.7801 37.3162 10.7801 36.7282ZM7.2941 36.7282C7.2941 36.9708 7.21943 37.1668 7.0701 37.3162C6.91143 37.4562 6.71077 37.5262 6.4681 37.5262C6.22543 37.5262 6.0341 37.4562 5.8941 37.3162C5.74477 37.1668 5.6701 36.9708 5.6701 36.7282C5.6701 36.4855 5.74477 36.2942 5.8941 36.1542C6.0341 36.0048 6.22543 35.9302 6.4681 35.9302C6.71077 35.9302 6.91143 36.0048 7.0701 36.1542C7.21943 36.2942 7.2941 36.4855 7.2941 36.7282ZM11.6201 31.1756L1.4001 31.1756L1.4001 28.6416C1.4001 27.9883 1.5261 27.4236 1.7781 26.9476C2.0301 26.4623 2.38943 26.089 2.8561 25.8276C3.31343 25.5663 3.8501 25.4356 4.4661 25.4356L8.5401 25.4356C9.16543 25.4356 9.71143 25.5663 10.1781 25.8276C10.6354 26.089 10.9901 26.4623 11.2421 26.9476C11.4941 27.4236 11.6201 27.9883 11.6201 28.6416L11.6201 31.1756ZM10.6261 30.0696L10.6261 28.6416C10.6261 27.9883 10.4394 27.475 10.0661 27.1016C9.69277 26.7283 9.1841 26.5416 8.5401 26.5416L4.4661 26.5416C3.83143 26.5416 3.32743 26.733 2.9541 27.1156C2.58077 27.489 2.3941 27.9976 2.3941 28.6416L2.3941 30.0696L10.6261 30.0696ZM11.6201 22.7811L1.4001 22.7811L1.4001 20.2471C1.4001 19.5938 1.5261 19.0291 1.7781 18.5531C2.0301 18.0678 2.38943 17.6944 2.8561 17.4331C3.31343 17.1718 3.8501 17.0411 4.4661 17.0411L8.5401 17.0411C9.16543 17.0411 9.71143 17.1718 10.1781 17.4331C10.6354 17.6944 10.9901 18.0678 11.2421 18.5531C11.4941 19.0291 11.6201 19.5938 11.6201 20.2471L11.6201 22.7811ZM10.6261 21.6751L10.6261 20.2471C10.6261 19.5938 10.4394 19.0804 10.0661 18.7071C9.69277 18.3338 9.1841 18.1471 8.5401 18.1471L4.4661 18.1471C3.83143 18.1471 3.32743 18.3384 2.9541 18.7211C2.58077 19.0944 2.3941 19.6031 2.3941 20.2471L2.3941 21.6751L10.6261 21.6751ZM11.6201 13.0286L6.9301 10.1166L6.8881 10.1726C7.12143 10.3406 7.31743 10.5832 7.4761 10.9006C7.62543 11.2179 7.7001 11.5819 7.7001 11.9926C7.7001 12.5432 7.56943 13.0239 7.3081 13.4346C7.04677 13.8452 6.6781 14.1626 6.2021 14.3866C5.7261 14.6106 5.17077 14.7226 4.5361 14.7226C3.87343 14.7226 3.29943 14.5919 2.8141 14.3306C2.32877 14.0692 1.95077 13.7006 1.6801 13.2246C1.4001 12.7392 1.2601 12.1839 1.2601 11.5586C1.2601 10.9146 1.4001 10.3546 1.6801 9.87857C1.95077 9.39323 2.32877 9.0199 2.8141 8.75857C3.29943 8.49723 3.87343 8.36657 4.5361 8.36657C5.02143 8.36657 5.50677 8.43657 5.9921 8.57657C6.4681 8.70723 6.9301 8.91257 7.3781 9.19257L11.6201 11.7966L11.6201 13.0286ZM6.7761 11.5446C6.7761 10.9192 6.57077 10.4199 6.1601 10.0466C5.74943 9.6639 5.20343 9.47257 4.5221 9.47257C3.84077 9.46323 3.29477 9.6499 2.8841 10.0326C2.4641 10.4152 2.2541 10.9192 2.2541 11.5446C2.2541 12.1699 2.4641 12.6739 2.8841 13.0566C3.29477 13.4299 3.84543 13.6166 4.5361 13.6166C5.2081 13.6166 5.74943 13.4299 6.1601 13.0566C6.57077 12.6739 6.7761 12.1699 6.7761 11.5446ZM11.6201 5.95004L1.3861 5.95004L1.3861 3.59532e-05L2.4081 3.59078e-05L2.4081 4.85804L5.9921 4.85804L5.9921 0.392036L7.0001 0.392036L7.0001 4.83004L11.6201 4.83004L11.6201 5.95004Z" fill="#CACACA"/>
</svg>
