<svg width="241" height="72" viewBox="0 0 241 72" fill="none" xmlns="http://www.w3.org/2000/svg">
<rect width="72" height="72" fill="#B6B6B6"/>
<path d="M36.2989 36.0768L24.1494 43.096L24.1494 57.1345" stroke="#0E0E0E" stroke-width="2" stroke-miterlimit="2.6"/>
<path d="M48.4489 57.1344V43.096L36.2993 36.0768" stroke="#0E0E0E" stroke-width="2" stroke-miterlimit="2.6"/>
<path d="M24.1494 57.1345L36.299 50.1152L48.4486 57.1344" stroke="#0E0E0E" stroke-width="2" stroke-miterlimit="2.6"/>
<path d="M36.299 36.0768L36.299 22.0384L24.1494 15.0191" stroke="#0E0E0E" stroke-width="2" stroke-miterlimit="2.6"/>
<path d="M12 36.0768L24.1495 43.096L36.2992 36.0768" stroke="#0E0E0E" stroke-width="2" stroke-miterlimit="2.6"/>
<path d="M24.1495 15.0191L24.1495 29.0576L12 36.0768" stroke="#0E0E0E" stroke-width="2" stroke-miterlimit="2.6"/>
<path d="M36.2993 36.0768L48.4489 43.0959L60.5985 36.0767" stroke="#0E0E0E" stroke-width="2" stroke-miterlimit="2.6"/>
<path d="M48.4489 15.0191L36.2993 22.0383L36.2993 36.0768" stroke="#0E0E0E" stroke-width="2" stroke-miterlimit="2.6"/>
<path d="M60.5983 36.0767L48.4488 29.0575L48.4487 15.0191" stroke="#0E0E0E" stroke-width="2" stroke-miterlimit="2.6"/>
<path d="M36.2991 64.1536L60.5982 50.1152L60.5982 22.0384L36.2991 8L12 22.0384V50.1152L36.2991 64.1536Z" stroke="#0E0E0E" stroke-width="2"/>
<rect x="72" width="169" height="35" fill="#D9D9D9" fill-opacity="0.08"/>
<rect x="72" y="35" width="169" height="37" fill="#B6B6B6"/>
<g clip-path="url(#clip0_489_284)">
<path d="M80.6 41H79V68H80.6V41Z" fill="#0E0E0E"/>
<path d="M83.8002 41H82.2002V68H83.8002V41Z" fill="#0E0E0E"/>
<path d="M88.6 41H87V64.8235H88.6V41Z" fill="#0E0E0E"/>
<path d="M94.9998 41H91.7998V64.8235H94.9998V41Z" fill="#0E0E0E"/>
<path d="M103 41H96.6001V64.8235H103V41Z" fill="#0E0E0E"/>
<path d="M106.2 41H104.6V64.8235H106.2V41Z" fill="#0E0E0E"/>
<path d="M114.2 41H109.4V64.8235H114.2V41Z" fill="#0E0E0E"/>
<path d="M117.4 41H115.8V64.8235H117.4V41Z" fill="#0E0E0E"/>
<path d="M122.2 41H119V64.8235H122.2V41Z" fill="#0E0E0E"/>
<path d="M128.6 41H127V64.8235H128.6V41Z" fill="#0E0E0E"/>
<path d="M136.6 41H135V64.8235H136.6V41Z" fill="#0E0E0E"/>
<path d="M139.8 41H138.2V64.8235H139.8V41Z" fill="#0E0E0E"/>
<path d="M144.6 41H143V64.8235H144.6V41Z" fill="#0E0E0E"/>
<path d="M151 41H149.4V64.8235H151V41Z" fill="#0E0E0E"/>
<path d="M154.2 41H152.6V68H154.2V41Z" fill="#0E0E0E"/>
<path d="M157.4 41H155.8V68H157.4V41Z" fill="#0E0E0E"/>
<path d="M160.6 41H159V64.8235H160.6V41Z" fill="#0E0E0E"/>
<path d="M165.4 41H163.8V64.8235H165.4V41Z" fill="#0E0E0E"/>
<path d="M175 41H170.2V64.8235H175V41Z" fill="#0E0E0E"/>
<path d="M178.2 41H176.6V64.8235H178.2V41Z" fill="#0E0E0E"/>
<path d="M186.2 41H181.4V64.8235H186.2V41Z" fill="#0E0E0E"/>
<path d="M191 41H189.4V64.8235H191V41Z" fill="#0E0E0E"/>
<path d="M195.8 41H192.6V64.8235H195.8V41Z" fill="#0E0E0E"/>
<path d="M202.2 41H199V64.8235H202.2V41Z" fill="#0E0E0E"/>
<path d="M207 41H203.8V64.8235H207V41Z" fill="#0E0E0E"/>
<path d="M211.8 41H208.6V64.8235H211.8V41Z" fill="#0E0E0E"/>
<path d="M216.6 41H215V64.8235H216.6V41Z" fill="#0E0E0E"/>
<path d="M221.4 41H219.8V64.8235H221.4V41Z" fill="#0E0E0E"/>
<path d="M227.8 41H226.2V68H227.8V41Z" fill="#0E0E0E"/>
<path d="M231 41H229.4V68H231V41Z" fill="#0E0E0E"/>
</g>
<path opacity="0.612" d="M214 15.9507L222.972 24.9011L231.943 15.9507L222.972 7L214 15.9507ZM214.707 16.061L224.298 15.3735L226.342 17.412L222.965 24.2994L214.707 16.061ZM214.771 15.777L222.972 7.59576L223.046 7.66969L226.438 12.9112L224.247 15.0978L214.771 15.777ZM223.561 23.717L226.687 17.3429L228.574 15.4604L231.279 16.0175L223.561 23.717ZM223.985 8.60624L231.089 15.6936L228.811 15.2245L228.825 15.2098L227.226 13.6142L223.985 8.60624Z" fill="white"/>
<path d="M231.943 15.9504L222.972 7L214 15.9504L222.972 24.9011L231.943 15.9504ZM231.236 15.8401L221.645 16.5276L219.602 14.4891L222.978 7.60178L231.236 15.8401ZM231.172 16.1241L222.972 24.3054L222.898 24.2314L219.505 18.9899L221.697 16.8033L231.172 16.1241ZM222.382 8.18414L219.257 14.5582L217.369 16.4408L214.664 15.8837L222.382 8.18414ZM221.959 23.2949L214.855 16.2075L217.133 16.6767L217.118 16.6913L218.718 18.287L221.959 23.2949Z" fill="white"/>
<path d="M82.674 22L86.342 12.816H82.268V14.482H81.134V11.78H87.448V12.886L83.892 22H82.674ZM89.7525 22V11.78H92.2865C92.9399 11.78 93.5045 11.906 93.9805 12.158C94.4659 12.41 94.8392 12.7693 95.1005 13.236C95.3619 13.6933 95.4925 14.23 95.4925 14.846V18.92C95.4925 19.5453 95.3619 20.0913 95.1005 20.558C94.8392 21.0153 94.4659 21.37 93.9805 21.622C93.5045 21.874 92.9399 22 92.2865 22H89.7525ZM90.8585 21.006H92.2865C92.9399 21.006 93.4532 20.8193 93.8265 20.446C94.1999 20.0727 94.3865 19.564 94.3865 18.92V14.846C94.3865 14.2113 94.1952 13.7073 93.8125 13.334C93.4392 12.9607 92.9305 12.774 92.2865 12.774H90.8585V21.006ZM98.0911 22V20.852L101.241 17.548C101.801 16.96 102.212 16.428 102.473 15.952C102.734 15.476 102.865 15.014 102.865 14.566C102.865 13.9687 102.692 13.4973 102.347 13.152C102.011 12.7973 101.549 12.62 100.961 12.62C100.345 12.62 99.8551 12.7973 99.4911 13.152C99.1364 13.5067 98.9591 13.992 98.9591 14.608H97.8391C97.8577 14.0013 97.9977 13.474 98.2591 13.026C98.5204 12.578 98.8797 12.2373 99.3371 12.004C99.8037 11.7613 100.345 11.64 100.961 11.64C101.577 11.64 102.109 11.7567 102.557 11.99C103.014 12.2233 103.364 12.5593 103.607 12.998C103.85 13.4273 103.971 13.9453 103.971 14.552C103.971 15.14 103.812 15.728 103.495 16.316C103.178 16.904 102.669 17.562 101.969 18.29L99.3091 20.992H104.167V22H98.0911ZM105.954 22L108.656 11.78H110.126L112.814 22H111.694L110.98 19.228H107.788L107.088 22H105.954ZM108.012 18.276H110.742L109.874 14.86C109.734 14.2907 109.622 13.8147 109.538 13.432C109.454 13.04 109.402 12.788 109.384 12.676C109.365 12.788 109.314 13.04 109.23 13.432C109.146 13.8147 109.034 14.2907 108.894 14.86L108.012 18.276ZM114.88 22V20.992H117.68V12.718L114.908 14.776V13.544L117.288 11.78H118.786V20.992H121.096V22H114.88ZM123.275 22V20.852L126.425 17.548C126.985 16.96 127.395 16.428 127.657 15.952C127.918 15.476 128.049 15.014 128.049 14.566C128.049 13.9687 127.876 13.4973 127.531 13.152C127.195 12.7973 126.733 12.62 126.145 12.62C125.529 12.62 125.039 12.7973 124.675 13.152C124.32 13.5067 124.143 13.992 124.143 14.608H123.023C123.041 14.0013 123.181 13.474 123.443 13.026C123.704 12.578 124.063 12.2373 124.521 12.004C124.987 11.7613 125.529 11.64 126.145 11.64C126.761 11.64 127.293 11.7567 127.741 11.99C128.198 12.2233 128.548 12.5593 128.791 12.998C129.033 13.4273 129.155 13.9453 129.155 14.552C129.155 15.14 128.996 15.728 128.679 16.316C128.361 16.904 127.853 17.562 127.153 18.29L124.493 20.992H129.351V22H123.275ZM131.767 22V11.766H137.717V12.788H132.859V16.372H137.325V17.38H132.887V22H131.767ZM141.478 22L144.39 17.31L144.334 17.268C144.166 17.5013 143.923 17.6973 143.606 17.856C143.288 18.0053 142.924 18.08 142.514 18.08C141.963 18.08 141.482 17.9493 141.072 17.688C140.661 17.4267 140.344 17.058 140.12 16.582C139.896 16.106 139.784 15.5507 139.784 14.916C139.784 14.2533 139.914 13.6793 140.176 13.194C140.437 12.7087 140.806 12.3307 141.282 12.06C141.767 11.78 142.322 11.64 142.948 11.64C143.592 11.64 144.152 11.78 144.628 12.06C145.113 12.3307 145.486 12.7087 145.748 13.194C146.009 13.6793 146.14 14.2533 146.14 14.916C146.14 15.4013 146.07 15.8867 145.93 16.372C145.799 16.848 145.594 17.31 145.314 17.758L142.71 22H141.478ZM142.962 17.156C143.587 17.156 144.086 16.9507 144.46 16.54C144.842 16.1293 145.034 15.5833 145.034 14.902C145.043 14.2207 144.856 13.6747 144.474 13.264C144.091 12.844 143.587 12.634 142.962 12.634C142.336 12.634 141.832 12.844 141.45 13.264C141.076 13.6747 140.89 14.2253 140.89 14.916C140.89 15.588 141.076 16.1293 141.45 16.54C141.832 16.9507 142.336 17.156 142.962 17.156ZM148.528 22V11.78H151.342C152.257 11.78 152.976 12.018 153.498 12.494C154.021 12.9607 154.282 13.6047 154.282 14.426C154.282 14.8927 154.184 15.3033 153.988 15.658C153.802 16.0033 153.531 16.274 153.176 16.47C152.831 16.6567 152.411 16.7453 151.916 16.736V16.54C152.448 16.54 152.906 16.6473 153.288 16.862C153.68 17.0673 153.984 17.3707 154.198 17.772C154.413 18.164 154.52 18.6307 154.52 19.172C154.52 19.7507 154.399 20.2547 154.156 20.684C153.914 21.104 153.568 21.4307 153.12 21.664C152.672 21.888 152.136 22 151.51 22H148.528ZM149.606 20.992H151.412C152.038 20.992 152.528 20.8287 152.882 20.502C153.246 20.166 153.428 19.7133 153.428 19.144C153.428 18.556 153.246 18.0847 152.882 17.73C152.528 17.366 152.038 17.184 151.412 17.184H149.606V20.992ZM149.606 16.218H151.342C151.912 16.218 152.36 16.064 152.686 15.756C153.013 15.448 153.176 15.028 153.176 14.496C153.176 13.964 153.013 13.5487 152.686 13.25C152.369 12.942 151.921 12.788 151.342 12.788H149.606V16.218ZM156.853 22V20.992H159.653V12.718L156.881 14.776V13.544L159.261 11.78H160.759V20.992H163.069V22H156.853ZM168.201 22.14C167.548 22.14 166.983 22.028 166.507 21.804C166.031 21.58 165.663 21.2627 165.401 20.852C165.14 20.432 165.005 19.9327 164.995 19.354H166.115C166.115 19.9047 166.302 20.3433 166.675 20.67C167.049 20.9873 167.557 21.146 168.201 21.146C168.817 21.146 169.298 20.992 169.643 20.684C169.998 20.376 170.175 19.9513 170.175 19.41C170.175 18.962 170.054 18.5747 169.811 18.248C169.569 17.912 169.228 17.6787 168.789 17.548L167.459 17.128C166.759 16.9227 166.218 16.5727 165.835 16.078C165.462 15.574 165.275 14.986 165.275 14.314C165.275 13.7633 165.397 13.292 165.639 12.9C165.882 12.4987 166.223 12.186 166.661 11.962C167.109 11.738 167.632 11.626 168.229 11.626C169.116 11.626 169.825 11.8733 170.357 12.368C170.889 12.8627 171.155 13.5253 171.155 14.356H170.049C170.049 13.824 169.886 13.404 169.559 13.096C169.233 12.788 168.785 12.634 168.215 12.634C167.646 12.634 167.198 12.774 166.871 13.054C166.554 13.3247 166.395 13.712 166.395 14.216C166.395 14.6547 166.517 15.0373 166.759 15.364C167.002 15.6907 167.343 15.924 167.781 16.064L169.111 16.484C169.802 16.6987 170.339 17.0627 170.721 17.576C171.104 18.0893 171.295 18.6913 171.295 19.382C171.295 19.9327 171.165 20.418 170.903 20.838C170.651 21.2487 170.292 21.5707 169.825 21.804C169.368 22.028 168.827 22.14 168.201 22.14ZM173.698 22V11.78H176.232C176.885 11.78 177.45 11.906 177.926 12.158C178.411 12.41 178.785 12.7693 179.046 13.236C179.307 13.6933 179.438 14.23 179.438 14.846V18.92C179.438 19.5453 179.307 20.0913 179.046 20.558C178.785 21.0153 178.411 21.37 177.926 21.622C177.45 21.874 176.885 22 176.232 22H173.698ZM174.804 21.006H176.232C176.885 21.006 177.399 20.8193 177.772 20.446C178.145 20.0727 178.332 19.564 178.332 18.92V14.846C178.332 14.2113 178.141 13.7073 177.758 13.334C177.385 12.9607 176.876 12.774 176.232 12.774H174.804V21.006ZM182.134 22V11.766H188.084V12.788H183.226V16.372H187.692V17.38H183.254V22H182.134ZM189.899 22L192.601 11.78H194.071L196.759 22H195.639L194.925 19.228H191.733L191.033 22H189.899ZM191.957 18.276H194.687L193.819 14.86C193.679 14.2907 193.567 13.8147 193.483 13.432C193.399 13.04 193.348 12.788 193.329 12.676C193.31 12.788 193.259 13.04 193.175 13.432C193.091 13.8147 192.979 14.2907 192.839 14.86L191.957 18.276ZM203.361 22V19.718H198.713V17.898L202.773 11.78H203.977L199.833 18.15V18.71H203.361V16.12H204.467V22H203.361Z" fill="#E6E6E6"/>
<defs>
<clipPath id="clip0_489_284">
<rect width="152" height="27" fill="white" transform="translate(79 41)"/>
</clipPath>
</defs>
</svg>
