<?xml version="1.0" encoding="UTF-8" standalone="no"?>
<!-- Created with Inkscape (http://www.inkscape.org/) -->

<svg
   width="122.00168"
   height="122"
   viewBox="0 0 122.00168 122"
   version="1.1"
   id="svg1"
   xml:space="preserve"
   xmlns="http://www.w3.org/2000/svg"
   xmlns:svg="http://www.w3.org/2000/svg"><defs
     id="defs1" /><g
     id="layer1"
     transform="translate(-28.171875,-32.519531)"><g
       id="g12"><path
         id="rect4-2"
         style="baseline-shift:baseline;display:inline;overflow:visible;opacity:0.612;vector-effect:none;fill:#ffffff;fill-opacity:1;enable-background:accumulate;stop-color:#000000"
         d="m 89.17356,154.51953 61,-61 L 89.173557,32.519532 28.171875,93.519798 Z m 0.751953,-4.81055 -4.685543,-65.208978 13.892847,-13.89426 46.939453,22.958986 z m -1.935547,-0.43164 -55.757811,-55.757812 0.5039,-0.503906 35.72266,-23.06641 14.902345,14.90235 z M 142.10325,89.509765 98.661838,68.259762 85.831775,55.427722 89.62865,37.035142 Z m -102.984375,-2.876953 48.30246,-48.30105 -3.197266,15.48828 -0.0996,-0.0996 -10.875004,10.87501 z" /><path
         id="rect4"
         style="baseline-shift:baseline;display:inline;overflow:visible;vector-effect:none;fill:#ffffff;fill-opacity:1;enable-background:accumulate;stop-color:#000000"
         d="m 89.171875,32.519532 -61,61 61.000003,60.999998 61.001682,-61.000266 z m -0.751953,4.810546 4.685543,65.208982 -13.892847,13.89426 -46.939456,-22.958986 z m 1.935547,0.431641 55.757811,55.757815 -0.5039,0.503906 -35.72266,23.06641 -14.902345,-14.90235 z m -54.113282,59.767578 43.44141,21.250003 12.830063,12.83204 -3.796875,18.39258 z m 102.984373,2.876953 -48.30246,48.30105 3.197266,-15.48828 0.0996,0.0996 10.875004,-10.87501 z" /></g></g></svg>
