<?xml version="1.0" encoding="UTF-8" standalone="no"?>
<!-- Created with Inkscape (http://www.inkscape.org/) -->

<svg
   width="176"
   height="220"
   viewBox="0 0 46.566668 58.208332"
   version="1.1"
   id="svg1"
   xml:space="preserve"
   sodipodi:docname="user.svg"
   inkscape:version="1.4.3 (0d15f75042, 2025-12-25)"
   xmlns:inkscape="http://www.inkscape.org/namespaces/inkscape"
   xmlns:sodipodi="http://sodipodi.sourceforge.net/DTD/sodipodi-0.dtd"
   xmlns="http://www.w3.org/2000/svg"
   xmlns:svg="http://www.w3.org/2000/svg"
   xmlns:rdf="http://www.w3.org/1999/02/22-rdf-syntax-ns#"
   xmlns:cc="http://creativecommons.org/ns#"
   xmlns:dc="http://purl.org/dc/elements/1.1/"><sodipodi:namedview
     id="namedview1"
     pagecolor="#505050"
     bordercolor="#eeeeee"
     borderopacity="1"
     inkscape:showpageshadow="0"
     inkscape:pageopacity="0"
     inkscape:pagecheckerboard="0"
     inkscape:deskcolor="#505050"
     inkscape:zoom="4.7954545"
     inkscape:cx="84.14218"
     inkscape:cy="72.255924"
     inkscape:current-layer="svg1" /><defs
     id="defs1" /><metadata
     id="metadata1"><rdf:RDF><cc:Work
         rdf:about=""><dc:format>image/svg+xml</dc:format><dc:type
           rdf:resource="http://purl.org/dc/dcmitype/StillImage" /></cc:Work></rdf:RDF></metadata><g
     id="layer1"
     transform="matrix(2.3153636,0,0,0.63257588,-31.055683,21.270107)"
     style="stroke-width:0.826298"><g
       id="g2"
       style="display:none;stroke-width:0.375964"
       transform="matrix(0.25115032,0,0,0.91926414,35.956698,-30.50273)"><path
         fill="#000000"
         stroke="none"
         d="m -9.9905569,81.169251 q -0.7810551,-3.957341 -2.9159371,-6.092225 -2.655586,-3.07215 -20.203281,-9.84129 -5.623593,-2.603516 -5.623593,-5.936016 l -0.156211,-2.551445 q 4.478047,-4.582187 5.988086,-10.518202 2.343163,-0.989336 2.863866,-4.009413 2.968008,-5.988086 -1.041406,-8.175039 3.124219,-10.674413 -0.728984,-15.933515 L -40.451689,6.3962872 q 0,2.8638675 -1.249686,2.2910935 0.676914,-1.7703905 0,-2.551445 -0.833125,1.9786718 -2.759727,2.2910937 l 1.145547,-1.8745316 q -1.093476,1.6141802 -3.332499,1.6662498 -0.624844,-0.7810544 0.364491,-2.3952338 -1.197617,0.728984 -2.030742,1.8745308 -1.197617,-0.208281 -0.885195,-2.6035148 -0.989336,1.1455468 -2.082812,2.4993747 -2.082813,-0.1562113 -0.156211,-2.7597261 -2.343164,0.5727725 -2.655586,2.3431633 -0.833125,-0.520703 -0.989336,-2.1348823 -2.603515,3.2804291 -6.560858,6.7170696 l -5.415313,4.946679 q -3.38457,3.644921 -3.228359,9.320585 0.156211,5.623593 1.510039,8.018828 -3.957344,2.551445 -1.197617,8.279179 0.624844,3.332499 3.020078,3.592852 1.71832,6.352577 6.300507,10.830623 0.468633,5.102891 -3.801132,7.393984 -2.863867,1.562109 -6.665,2.915937 l -6.977421,2.811797 q -7.185702,3.228359 -9.424726,6.196368 -2.86387,4.269768 -2.239023,9.372658 h 79.719642 q 0.4686341,-2.186957 0.052071,-4.269768 z"
         id="path8"
         style="fill:#f61f03;fill-opacity:1;stroke-width:0.375964" /></g><path
       id="rect2"
       style="display:inline;fill:#0e0e0e;fill-opacity:1;stroke-width:0.437247;stroke-miterlimit:3"
       d="m 23.433594,28.972656 c -3.783323,0.365635 -7.558659,5.01348 -9.914063,13.634766 -0.603074,2.207359 -2.611328,32.605469 -2.611328,32.605469 h 12.525391 12.523437 c 0,0 -2.008254,-30.39811 -2.611328,-32.605469 -2.355404,-8.621286 -6.128787,-13.269131 -9.912109,-13.634766 z" /><path
       id="rect3"
       style="display:inline;fill:#0e0e0e;stroke-width:0.481357;stroke-miterlimit:3"
       d="m 23.412109,21.666016 -2.634765,0.01953 c 0,0 0.09738,6.307989 -2.576172,9.488281 -1.912861,2.275424 2.286141,5.818836 5.210937,6.257813 2.924796,-0.438977 7.123799,-3.982389 5.210938,-6.257813 -2.673549,-3.180292 -2.576172,-9.488281 -2.576172,-9.488281 z"
       transform="matrix(0.82511485,-6.7258705e-5,0,1,4.0944304,0.00157467)" /><path
       id="path5"
       style="display:inline;fill:#0e0e0e;fill-opacity:1;stroke-width:0.437247;stroke-miterlimit:3"
       d="m 27.89551,0.79418822 c 0,12.63514678 -1.795607,25.03491078 -4.462654,25.03490778 -2.667043,0 -4.46265,-12.399762 -4.46265,-25.03490778 0,-12.63514522 1.7099,-19.88447022 4.46265,-19.88447222 2.75275,-2e-6 4.462654,7.249327 4.462654,19.88447222 z" /><path
       id="rect13"
       style="fill:#0e0e0e;stroke-width:0.437247;stroke-miterlimit:3"
       d="m 18.45898,1.5455317 c 0.287837,-0.74929979 0.686215,0.7196189 0.893225,3.2935363 l 0.06923,0.8608224 c 0.20701,2.5739173 0.141941,5.2492866 -0.145895,5.9985866 -0.287836,0.749298 -0.689739,-1.255906 -0.777833,-1.859873 L 18.313086,7.5441185 C 17.94447,4.4711114 18.171145,2.2948303 18.45898,1.5455317 Z m 8.912367,0 C 27.08351,0.79623191 26.685132,2.2651506 26.478122,4.839068 l -0.06923,0.8608224 c -0.20701,2.5739173 -0.141941,5.2492866 0.145895,5.9985866 0.287836,0.749298 0.689739,-1.255906 0.777833,-1.859873 L 27.517241,7.5441185 C 27.885857,4.4711114 27.659182,2.2948303 27.371347,1.5455317 Z"
       transform="translate(0.517694)" /></g><path
     id="rect4-7"
     style="display:none;fill:#ffffff;fill-opacity:1;stroke:none;stroke-width:2.64583;stroke-miterlimit:3;stroke-dasharray:none"
     d="M 0.87933293,58.208335 H -7.4505806e-8 v -0.879333 z"
     sodipodi:nodetypes="cccc" /><rect
     style="display:none;fill:none;stroke:#ffffff;stroke-width:0.264583;stroke-miterlimit:3;stroke-dasharray:none;stroke-opacity:1"
     id="rect1"
     width="46.302078"
     height="57.943752"
     x="0.13229142"
     y="0.1322915" /><path
     id="rect4"
     style="display:none;fill:#ffffff;fill-opacity:1;stroke:none;stroke-width:2.64584;stroke-miterlimit:3"
     d="m 45.687333,0 h 0.879333 v 0.87933343 z"
     sodipodi:nodetypes="cccc" /></svg>
